<svg xmlns="http://www.w3.org/2000/svg" viewBox="0 0 149.49 172.41"><defs><style>.cls-1{fill:#eb3375;}.cls-2{fill:#335cff;}.cls-3{fill:#2f32e3;}</style></defs><g id="Capa_2" data-name="Capa 2"><g id="Capa_1-2" data-name="Capa 1"><path class="cls-1" d="M119.34,115.85a27.85,27.85,0,0,1-14.73-4l-11.16-6.94-30-18.69L14.59,116.58C.35,125.45-3.94,142.92,3.83,157.63c5,9.43,15.74,14.78,26.32,14.78a27.82,27.82,0,0,0,14.72-4L56,161.45l78.84-49.06a30.28,30.28,0,0,0,14.58-25.07,32.63,32.63,0,0,1-3.8,13.75C140.68,110.5,129.91,115.85,119.34,115.85Z"/><path class="cls-2" d="M134.89,60,56.06,11,44.9,4A27.88,27.88,0,0,0,30.17,0C19.59,0,8.83,5.36,3.85,14.79-3.92,29.5.37,47,14.61,55.83L63.42,86.2l30-18.67,11.16-7a27.85,27.85,0,0,1,14.73-4c10.57,0,21.34,5.36,26.32,14.79a32.35,32.35,0,0,1,3.82,16A30.29,30.29,0,0,0,134.89,60Z"/><path class="cls-3" d="M119.32,56.56a27.85,27.85,0,0,0-14.73,4l-11.16,7-30,18.67,30,18.69,11.16,6.94a27.85,27.85,0,0,0,14.73,4c10.57,0,21.34-5.35,26.32-14.78a32.63,32.63,0,0,0,3.8-13.75,32.35,32.35,0,0,0-3.82-16C140.66,61.92,129.89,56.56,119.32,56.56Z"/></g></g></svg>